<?xml version="1.0" encoding="UTF-8" standalone="no"?>
<!-- Created with Inkscape (http://www.inkscape.org/) -->

<svg
   xmlns:dc="http://purl.org/dc/elements/1.1/"
   xmlns:cc="http://creativecommons.org/ns#"
   xmlns:rdf="http://www.w3.org/1999/02/22-rdf-syntax-ns#"
   xmlns:svg="http://www.w3.org/2000/svg"
   xmlns="http://www.w3.org/2000/svg"
   version="1.1"
   width="744.09448"
   height="1052.3622"
   id="svg2">
  <defs
     id="defs4" />
  <metadata
     id="metadata7">
    <rdf:RDF>
      <cc:Work
         rdf:about="">
        <dc:format>image/svg+xml</dc:format>
        <dc:type
           rdf:resource="http://purl.org/dc/dcmitype/StillImage" />
        <dc:title></dc:title>
      </cc:Work>
    </rdf:RDF>
  </metadata>
  <g
     id="layer1">
    <path
       d="m 237.85714,284.50504 a 10.714286,10.714286 0 1 1 -21.42857,0 10.714286,10.714286 0 1 1 21.42857,0 z"
       transform="translate(-0.1428565,1.7744078e-6)"
       id="path2985"
       style="fill:#000000;fill-opacity:1;stroke:#000000;stroke-width:3;stroke-miterlimit:4;stroke-opacity:1;stroke-dasharray:none" />
    <path
       d="m 237.85714,284.50504 a 10.714286,10.714286 0 1 1 -21.42857,0 10.714286,10.714286 0 1 1 21.42857,0 z"
       transform="translate(-0.1428565,36.928562)"
       id="path2985-0"
       style="fill:#000000;fill-opacity:1;stroke:#000000;stroke-width:3;stroke-miterlimit:4;stroke-opacity:1;stroke-dasharray:none" />
    <path
       d="m 237.85714,284.50504 a 10.714286,10.714286 0 1 1 -21.42857,0 10.714286,10.714286 0 1 1 21.42857,0 z"
       transform="translate(-0.1428565,73.857147)"
       id="path2985-0-6"
       style="fill:#000000;fill-opacity:1;stroke:#000000;stroke-width:3;stroke-miterlimit:4;stroke-opacity:1;stroke-dasharray:none" />
    <path
       d="m 237.85714,284.50504 a 10.714286,10.714286 0 1 1 -21.42857,0 10.714286,10.714286 0 1 1 21.42857,0 z"
       transform="translate(55.71429,0.5)"
       id="path2985-1"
       style="fill:#000000;fill-opacity:1;stroke:#000000;stroke-width:3;stroke-miterlimit:4;stroke-opacity:1;stroke-dasharray:none" />
    <path
       d="m 237.85714,284.50504 a 10.714286,10.714286 0 1 1 -21.42857,0 10.714286,10.714286 0 1 1 21.42857,0 z"
       transform="translate(55.71429,37.42856)"
       id="path2985-0-5"
       style="fill:#000000;fill-opacity:1;stroke:#000000;stroke-width:3;stroke-miterlimit:4;stroke-opacity:1;stroke-dasharray:none" />
    <path
       d="m 237.85714,284.50504 a 10.714286,10.714286 0 1 1 -21.42857,0 10.714286,10.714286 0 1 1 21.42857,0 z"
       transform="translate(55.71429,74.35715)"
       id="path2985-0-6-9"
       style="fill:#000000;fill-opacity:1;stroke:#000000;stroke-width:3;stroke-miterlimit:4;stroke-opacity:1;stroke-dasharray:none" />
    <rect
       width="123.47471"
       height="137.76042"
       x="193.26266"
       y="254.91055"
       id="rect3860"
       style="fill:none;stroke:#000000;stroke-width:2.38243198;stroke-miterlimit:4;stroke-opacity:1;stroke-dasharray:none" />
  </g>
</svg>
